# xmcd
#
# Track frame offsets:
# 150
# 42584
# 98987
# 152005
# 206066
# 254359
#
# Disc length: 4065 seconds
#
#
# Revision: 0
# Processed by: cddbd v1.5.2PL0 Copyright (c) Steve Scherf et al.
# Submitted via: FreeRIP 2.96 
#
DISCID=500fdf06
DTITLE=Filme - Flutsch und weg
DYEAR=2006
DGENRE=Hörspiel
TTITLE0=1 - Flutsch und weg
TTITLE1=2 - Flutsch und weg
TTITLE2=3 - Flutsch und weg
TTITLE3=4 - Flutsch und weg
TTITLE4=5 - Flutsch und weg
TTITLE5=6 - Flutsch und weg
EXTD=Dreamworks\nHörspiel zum Film
EXTT0=
EXTT1=
EXTT2=
EXTT3=
EXTT4=
EXTT5=
PLAYORDER=
